<svg xmlns="http://www.w3.org/2000/svg" viewBox="0 0 100 100" fill-rule="evenodd"><rect x="0" y="0" width="100" height="100" fill="#b0c7dd"></rect><g class="t-group-origins"><path d="M38.5 71.893H7.414c.783-14.982 13.219-26.93 28.393-26.93 4.31 0 8.449.939 12.303 2.792a1.5 1.5 0 0 0 1.3-2.704 31.145 31.145 0 0 0-13.603-3.088c-17.332 0-31.432 14.1-31.432 31.43a1.5 1.5 0 0 0 1.5 1.5H38.5a1.5 1.5 0 1 0 0-3zm-3.219-32.911c10.021 0 18.174-8.152 18.174-18.171s-8.153-18.17-18.174-18.17c-10.017 0-18.166 8.151-18.166 18.17s8.15 18.171 18.166 18.171zm0-33.341c8.367 0 15.174 6.805 15.174 15.17 0 8.366-6.807 15.171-15.174 15.171-8.363 0-15.166-6.806-15.166-15.171 0-8.365 6.803-15.17 15.166-15.17z" stroke-width="0" stroke="#ffffff" fill="#ffffff" stroke-width-old="0"></path><path d="M93.5 55.893H86v-10.5a1.5 1.5 0 0 0-1.5-1.5h-8a1.5 1.5 0 0 0-1.5 1.5v10.5H46.5a1.5 1.5 0 0 0-1.5 1.5v38a1.5 1.5 0 0 0 1.5 1.5h47a1.5 1.5 0 0 0 1.5-1.5v-38a1.5 1.5 0 0 0-1.5-1.5zm-15.5-9h5v19h-5v-19zm-3 12v8.5a1.5 1.5 0 0 0 1.5 1.5h8a1.5 1.5 0 0 0 1.5-1.5v-8.5h6v24H48v-24h27zm-27 35v-8h44v8H48z" stroke-width="0" stroke="#ffffff" fill="#ffffff" stroke-width-old="0"></path><path d="M66.5 68.893h1a1.5 1.5 0 1 0 0-3h-1a1.5 1.5 0 1 0 0 3zm0 7h1a1.5 1.5 0 1 0 0-3h-1a1.5 1.5 0 1 0 0 3zm-11-7h1a1.5 1.5 0 1 0 0-3h-1a1.5 1.5 0 1 0 0 3zm0 7h1a1.5 1.5 0 1 0 0-3h-1a1.5 1.5 0 1 0 0 3z" stroke-width="0" stroke="#ffffff" fill="#ffffff" stroke-width-old="0"></path></g></svg>
