<svg xmlns="http://www.w3.org/2000/svg" viewBox="0 0 100 100" fill-rule="evenodd"><rect x="0" y="0" width="100" height="100" fill="#b0c7dd"></rect><g class="t-group-origins"><path d="M92.6 67.5V30c0-9-7.3-16.2-16.2-16.2H63.1c-.8 0-1.5.7-1.5 1.5s.7 1.5 1.5 1.5h13.3c7.3 0 13.2 5.9 13.2 13.2v30.9c-2.3-3.1-5.7-5.3-9.5-6.3-4.4-1.1-8.9-.4-12.8 2-3.9 2.3-6.6 6-7.6 10.4-.2.8-.3 1.7-.4 2.5H40.7c-.2-2.5-1-5-2.4-7.3-2.3-3.9-6-6.6-10.4-7.6-4.4-1.1-8.9-.4-12.8 2-1.8 1.1-3.4 2.6-4.7 4.2V30c0-7.3 5.9-13.2 13.2-13.2H37c.8 0 1.5-.7 1.5-1.5s-.7-1.5-1.5-1.5H23.7c-9 0-16.2 7.3-16.2 16.2v37.2c-2.1 9 3.5 18 12.4 20.2 1.3.3 2.7.5 4 .5 7.6 0 14.5-5.2 16.4-12.9.2-.8.3-1.7.4-2.5h18.7c.2 2.5 1 5 2.4 7.3 2.3 3.9 6 6.6 10.4 7.6 1.3.3 2.7.5 4 .5 7.6 0 14.5-5.2 16.4-12.9.5-2.5.6-5.1 0-7.5zm-55.2 6.8c-1.8 7.4-9.3 12-16.8 10.2-7.4-1.8-12-9.3-10.2-16.8.9-3.6 3.1-6.6 6.3-8.6 2.2-1.3 4.7-2 7.2-2 1.1 0 2.2.1 3.3.4 3.6.9 6.6 3.1 8.6 6.3 1.9 3.1 2.5 6.9 1.6 10.5zm52.2 0c-1.8 7.4-9.3 12-16.8 10.2-3.6-.9-6.6-3.1-8.6-6.3-1.3-2.2-2-4.6-2-7.1v-.2c0-1.1.1-2.1.4-3.2.9-3.6 3.1-6.6 6.3-8.6 2.2-1.3 4.7-2 7.2-2 1.1 0 2.2.1 3.3.4 3.6.9 6.6 3.1 8.6 6.3 1.9 3.1 2.5 6.9 1.6 10.5z" stroke-width="0" stroke="#fcfcfc" fill="#fcfcfc" stroke-width-old="0"></path></g></svg>
