<svg xmlns="http://www.w3.org/2000/svg" viewBox="0 0 100 100" fill-rule="evenodd"><rect x="0" y="0" width="100" height="100" fill="#b0c7d7" mask="url(#6890d4cc2b592)"></rect><mask id="6890d4cc2b592"><rect x="0" y="0" width="100" height="100" fill="white"></rect><g class="t-group-origins"><path d="M91.429 53.554c-3.376-2.741-8.017-2.954-12.504-3.161-4.073-.187-7.921-.364-10.312-2.376l-.001-.001c-.62-.521-.826-.901-.814-1.069.054-.779 2.349-2.217 4.025-3.268 3.646-2.285 8.182-5.128 8.401-9.963.201-4.438-3.452-9.458-11.167-15.343a1.438 1.438 0 0 0-.118-.102c-9.735-7.543-21.185-10.57-32.247-8.521a38.275 38.275 0 0 0-25.737 17.764C.105 45.413 8.391 70.358 29.427 83.12c8.669 5.255 18.254 7.782 27.31 7.782 13.477 0 25.784-5.595 32.166-16.12 3.652-6.038 7.568-17.143 2.526-21.228zM86.336 73.23c-9.825 16.205-35.174 19.56-55.354 7.326-19.622-11.904-27.456-35-17.462-51.485a35.275 35.275 0 0 1 23.718-16.369 34.25 34.25 0 0 1 6.248-.574c8.169 0 16.341 2.905 23.534 8.454a2.256 2.256 0 0 0 .141.12c6.831 5.198 10.217 9.531 10.065 12.88-.148 3.264-3.787 5.544-6.998 7.557-2.825 1.771-5.265 3.3-5.425 5.601-.087 1.251.545 2.454 1.878 3.574 3.169 2.667 7.712 2.875 12.105 3.078 4.187.192 8.142.374 10.752 2.494 3.151 2.55.106 11.875-3.202 17.344z" stroke-width="0" stroke="black" fill="black" stroke-width-old="0"></path><path d="M56.346 36.731c1.805 1.098 3.787 1.673 5.666 1.673.695 0 1.375-.079 2.028-.238 1.739-.426 3.103-1.385 3.943-2.775 2.047-3.4.167-8.308-4.19-10.939-2.479-1.503-5.282-2.025-7.695-1.431-1.736.428-3.097 1.389-3.931 2.776-.845 1.392-1.065 3.048-.638 4.79.591 2.41 2.348 4.65 4.817 6.144zm-1.612-9.383c.527-.875 1.423-1.252 2.082-1.415.411-.101.847-.15 1.299-.15 1.333 0 2.799.43 4.125 1.235l.003.002c2.894 1.747 4.346 4.872 3.172 6.821-.528.873-1.427 1.249-2.088 1.411-1.623.398-3.651-.007-5.424-1.085-1.77-1.071-3.063-2.676-3.46-4.295-.164-.664-.246-1.639.291-2.524zm11.243 38.363s-.001 0 0 0a8.246 8.246 0 0 0-6.287-.962 8.233 8.233 0 0 0-5.116 3.758 8.224 8.224 0 0 0-.977 6.268 8.254 8.254 0 0 0 3.764 5.143 8.23 8.23 0 0 0 4.29 1.203 8.335 8.335 0 0 0 7.126-3.999c2.375-3.912 1.119-9.03-2.8-11.411zm.236 9.853c-1.526 2.505-4.798 3.309-7.294 1.791a5.279 5.279 0 0 1-2.406-3.288 5.242 5.242 0 0 1 .626-4.002 5.26 5.26 0 0 1 3.269-2.403 5.257 5.257 0 0 1 4.013.614c2.504 1.522 3.308 4.792 1.792 7.288zm-25.892-18.1a8.235 8.235 0 0 0-6.28-.965 8.237 8.237 0 0 0-5.12 3.76 8.235 8.235 0 0 0-.97 6.285 8.276 8.276 0 0 0 3.762 5.131 8.232 8.232 0 0 0 6.285.96 8.278 8.278 0 0 0 5.125-3.768 8.22 8.22 0 0 0 .966-6.267 8.257 8.257 0 0 0-3.768-5.136zm.238 9.845a5.297 5.297 0 0 1-3.28 2.414 5.248 5.248 0 0 1-4.008-.611 5.293 5.293 0 0 1-2.407-3.282 5.255 5.255 0 0 1 .621-4.015 5.262 5.262 0 0 1 3.27-2.402 5.251 5.251 0 0 1 4.009.616 5.278 5.278 0 0 1 2.409 3.283 5.23 5.23 0 0 1-.614 3.997zm-8.507-20.938a8.236 8.236 0 0 0 .963-6.276 8.251 8.251 0 0 0-3.767-5.128 8.241 8.241 0 0 0-6.287-.966 8.234 8.234 0 0 0-5.117 3.766c-2.371 3.906-1.117 9.022 2.797 11.408a8.235 8.235 0 0 0 6.285.962 8.26 8.26 0 0 0 5.126-3.766zm-2.565-1.555a5.285 5.285 0 0 1-3.278 2.408 5.256 5.256 0 0 1-4.009-.612c-2.502-1.524-3.306-4.794-1.79-7.291a5.26 5.26 0 0 1 3.267-2.406 5.27 5.27 0 0 1 4.016.618 5.273 5.273 0 0 1 2.408 3.277 5.25 5.25 0 0 1-.614 4.006z" stroke-width="0" stroke="black" fill="black" stroke-width-old="0"></path></g></mask></svg>
