<?xml version="1.0" encoding="UTF-8"?> <svg xmlns="http://www.w3.org/2000/svg" viewBox="0 0 100.00 100.00" data-guides="{&quot;vertical&quot;:[],&quot;horizontal&quot;:[]}"><path color="rgb(51, 51, 51)" fill-rule="evenodd" fill="#b0c7dd" x="0" y="0" width="100" height="100" id="tSvg13302f524a" title="Rectangle 1" fill-opacity="1" stroke="none" stroke-opacity="1" d="M0 0H100V100H0Z"></path><path fill="#ffffff" stroke="#ffffff" fill-opacity="1" stroke-width="0" stroke-opacity="1" color="rgb(51, 51, 51)" fill-rule="evenodd" id="tSvg18dc0e7e6b0" title="Path 1" d="M38.5 71.893C28.138 71.893 17.776 71.893 7.414 71.893C8.197 56.911 20.633 44.963 35.807 44.963C40.117 44.963 44.256 45.902 48.11 47.755C49.1508 48.2554 50.3429 47.4414 50.2559 46.2899C50.2155 45.7555 49.893 45.2832 49.41 45.051C45.1675 43.0064 40.5165 41.9506 35.807 41.963C18.475 41.963 4.375 56.063 4.375 73.393C4.375 74.2214 5.0466 74.893 5.875 74.893C16.75 74.893 27.625 74.893 38.5 74.893C39.6547 74.893 40.3764 73.643 39.799 72.643C39.5311 72.1789 39.0359 71.893 38.5 71.893ZM35.281 38.982C45.302 38.982 53.455 30.83 53.455 20.811C53.455 10.792 45.302 2.641 35.281 2.641C25.264 2.641 17.115 10.792 17.115 20.811C17.115 30.83 25.265 38.982 35.281 38.982ZM35.281 5.641C43.648 5.641 50.455 12.446 50.455 20.811C50.455 29.177 43.648 35.982 35.281 35.982C26.918 35.982 20.115 29.176 20.115 20.811C20.115 12.446 26.918 5.641 35.281 5.641Z"></path><path fill="#ffffff" stroke="#ffffff" fill-opacity="1" stroke-width="0" stroke-opacity="1" color="rgb(51, 51, 51)" fill-rule="evenodd" id="tSvg106b9d67c2a" title="Path 2" d="M93.5 55.893C91 55.893 88.5 55.893 86 55.893C86 52.393 86 48.893 86 45.393C86 44.5646 85.3284 43.893 84.5 43.893C81.8333 43.893 79.1667 43.893 76.5 43.893C75.6716 43.893 75 44.5646 75 45.393C75 48.893 75 52.393 75 55.893C65.5 55.893 56 55.893 46.5 55.893C45.6716 55.893 45 56.5646 45 57.393C45 70.0597 45 82.7263 45 95.393C45 96.2214 45.6716 96.893 46.5 96.893C62.1667 96.893 77.8333 96.893 93.5 96.893C94.3284 96.893 95 96.2214 95 95.393C95 82.7263 95 70.0597 95 57.393C95 56.5646 94.3284 55.893 93.5 55.893ZM78 46.893C79.6667 46.893 81.3333 46.893 83 46.893C83 53.2263 83 59.5597 83 65.893C81.3333 65.893 79.6667 65.893 78 65.893C78 59.5597 78 53.2263 78 46.893ZM75 58.893C75 61.7263 75 64.5597 75 67.393C75 68.2214 75.6716 68.893 76.5 68.893C79.1667 68.893 81.8333 68.893 84.5 68.893C85.3284 68.893 86 68.2214 86 67.393C86 64.5597 86 61.7263 86 58.893C88 58.893 90 58.893 92 58.893C92 66.893 92 74.893 92 82.893C77.3333 82.893 62.6667 82.893 48 82.893C48 74.893 48 66.893 48 58.893C57 58.893 66 58.893 75 58.893ZM48 93.893C48 91.2263 48 88.5597 48 85.893C62.6667 85.893 77.3333 85.893 92 85.893C92 88.5597 92 91.2263 92 93.893C77.3333 93.893 62.6667 93.893 48 93.893Z"></path><path fill="#ffffff" stroke="#ffffff" fill-opacity="1" stroke-width="0" stroke-opacity="1" color="rgb(51, 51, 51)" fill-rule="evenodd" id="tSvg654001fb43" title="Path 3" d="M66.5 68.893C66.8333 68.893 67.1667 68.893 67.5 68.893C68.6547 68.893 69.3764 67.643 68.799 66.643C68.5311 66.1789 68.0359 65.893 67.5 65.893C67.1667 65.893 66.8333 65.893 66.5 65.893C65.3453 65.893 64.6236 67.143 65.201 68.143C65.4689 68.6071 65.9641 68.893 66.5 68.893ZM66.5 75.893C66.8333 75.893 67.1667 75.893 67.5 75.893C68.6547 75.893 69.3764 74.643 68.799 73.643C68.5311 73.1789 68.0359 72.893 67.5 72.893C67.1667 72.893 66.8333 72.893 66.5 72.893C65.3453 72.893 64.6236 74.143 65.201 75.143C65.4689 75.6071 65.9641 75.893 66.5 75.893ZM55.5 68.893C55.8333 68.893 56.1667 68.893 56.5 68.893C57.6547 68.893 58.3764 67.643 57.799 66.643C57.5311 66.1789 57.0359 65.893 56.5 65.893C56.1667 65.893 55.8333 65.893 55.5 65.893C54.3453 65.893 53.6236 67.143 54.201 68.143C54.4689 68.6071 54.9641 68.893 55.5 68.893ZM55.5 75.893C55.8333 75.893 56.1667 75.893 56.5 75.893C57.6547 75.893 58.3764 74.643 57.799 73.643C57.5311 73.1789 57.0359 72.893 56.5 72.893C56.1667 72.893 55.8333 72.893 55.5 72.893C54.3453 72.893 53.6236 74.143 54.201 75.143C54.4689 75.6071 54.9641 75.893 55.5 75.893Z"></path><defs></defs></svg> 