<?xml version="1.0" encoding="UTF-8"?> <svg xmlns="http://www.w3.org/2000/svg" viewBox="0 0 100.00 100.00"><path fill="#b0c7dd" stroke="none" fill-opacity="1" stroke-width="1" stroke-opacity="1" color="rgb(51, 51, 51)" fill-rule="evenodd" x="0" y="0" width="100" height="100" id="tSvg137f23652f5" title="Rectangle 4" d="M0 0C33.3333 0 66.6667 0 100 0C100 33.3333 100 66.6667 100 100C66.6667 100 33.3333 100 0 100C0 66.6667 0 33.3333 0 0Z"></path><path fill="#ffffff" stroke="#000000" fill-opacity="1" stroke-width="0" stroke-opacity="1" color="rgb(51, 51, 51)" fill-rule="evenodd" id="tSvg812698b24a" title="Path 11" d="M89.9861 56.6967C89.9372 56.359 89.7599 56.0552 89.4935 55.8524C80.3228 48.8616 71.1521 41.8708 61.9814 34.8799C62.943 33.5385 63.9045 32.1971 64.8661 30.8558C65.0068 30.8747 65.1474 30.891 65.2897 30.891C66.3599 30.8968 67.3681 30.3736 68.0013 29.4838C68.7053 28.502 69.4092 27.5201 70.1131 26.5382C71.2153 24.9971 70.8997 22.8269 69.4075 21.687C65.9051 19.0171 62.4026 16.3473 58.9002 13.6774C57.4055 12.5418 55.3017 12.8672 54.1958 14.405C53.4916 15.3872 52.7873 16.3692 52.0832 17.3514C51.3351 18.3956 51.2553 19.7273 51.7379 20.8341C47.9447 26.1255 44.1517 31.4169 40.3586 36.7083C40.0526 36.6631 39.7421 36.6616 39.4358 36.704C38.5528 36.8381 37.7586 37.3309 37.23 38.0726C36.5261 39.0544 35.8222 40.0363 35.1183 41.0182C34.5854 41.7568 34.3613 42.6847 34.4959 43.5948C34.6259 44.5053 35.1038 45.3244 35.823 45.8694C39.3254 48.5393 42.8279 51.2091 46.3303 53.879C47.0464 54.429 47.9463 54.6601 48.829 54.5208C49.712 54.3867 50.5062 53.8939 51.0348 53.1523C51.7387 52.1701 52.4426 51.188 53.1465 50.2058C53.6792 49.4674 53.9034 48.5399 53.7689 47.63C53.7185 47.3156 53.6261 47.0098 53.4943 46.7214C54.4579 45.3771 55.4214 44.033 56.3849 42.6887C62.8977 47.6532 69.4106 52.6177 75.9234 57.5822C78.5813 59.6082 81.2392 61.6344 83.8971 63.6604C84.4509 64.0846 85.2336 63.9638 85.6427 63.391C87.0137 61.4785 88.3846 59.5659 89.7556 57.6534C89.9528 57.378 90.0352 57.0339 89.9861 56.6967ZM55.1202 40.1224C55.1202 40.1232 55.1194 40.1232 55.1202 40.1224C53.9963 41.69 52.8725 43.2576 51.7487 44.8252C48.7083 42.5077 45.668 40.1902 42.6276 37.8727C46.2463 32.8249 49.8649 27.7772 53.4835 22.7295C56.5239 25.047 59.5642 27.3645 62.6046 29.682C60.3741 32.7934 58.1437 35.905 55.9131 39.0164C55.6488 39.3851 55.3845 39.7537 55.1202 40.1224ZM54.0918 18.8804C54.7957 17.8986 55.4996 16.9167 56.2035 15.9348C56.4892 15.5384 57.0316 15.4545 57.4175 15.7469C60.9199 18.4168 64.4224 21.0866 67.9248 23.7565C68.3092 24.05 68.3916 24.612 68.107 25.0084C67.4031 25.9902 66.6992 26.9721 65.9952 27.954C65.7107 28.3516 65.1673 28.4356 64.7821 28.1419C61.2797 25.472 57.7772 22.8022 54.2748 20.1323C53.8893 19.8386 53.8074 19.2783 54.0918 18.8804ZM51.1396 48.6743C50.4354 49.6564 49.7312 50.6385 49.027 51.6207C48.7429 52.0192 48.1989 52.1034 47.8139 51.8086C44.3115 49.1387 40.809 46.4689 37.3066 43.799C36.921 43.5055 36.8395 42.9453 37.1244 42.548C37.8283 41.5658 38.5322 40.5837 39.2361 39.6016C39.5213 39.2041 40.0648 39.1204 40.4501 39.4145C43.9525 42.0844 47.455 44.7542 50.9574 47.4241C51.3424 47.7175 51.424 48.2772 51.1396 48.6743ZM60.4978 36.9503C66.6761 41.66 72.8545 46.3696 79.0328 51.0793C78.1564 52.302 77.2799 53.5246 76.4035 54.7473C70.2252 50.0376 64.0468 45.328 57.8685 40.6183C58.7449 39.3956 59.6214 38.173 60.4978 36.9503ZM84.3772 60.8247C82.3883 59.3085 80.3993 57.7924 78.4104 56.2763C79.2868 55.0536 80.1633 53.8309 81.0398 52.6083C83.0286 54.1244 85.0176 55.6405 87.0065 57.1566C86.1301 58.3793 85.2536 59.602 84.3772 60.8247ZM55.0852 65.2718C44.5458 65.2718 34.0064 65.2718 23.4669 65.2718C22.7776 65.2718 22.2188 65.848 22.2188 66.5588C22.2188 70.2769 22.2188 73.995 22.2188 77.713C22.2188 78.4238 22.7776 79.0001 23.4669 79.0001C34.0064 79.0001 44.5458 79.0001 55.0852 79.0001C55.7745 79.0001 56.3333 78.4238 56.3333 77.713C56.3333 73.995 56.3333 70.2769 56.3333 66.5588C56.3333 65.848 55.7745 65.2718 55.0852 65.2718ZM53.8372 76.426C44.1297 76.426 34.4224 76.426 24.715 76.426C24.715 73.566 24.715 70.7059 24.715 67.8458C34.4224 67.8458 44.1297 67.8458 53.8372 67.8458C53.8372 70.7059 53.8372 73.566 53.8372 76.426ZM22.6664 58.6762C23.6272 58.6746 24.2261 57.6012 23.7445 56.7439C23.5632 56.4214 23.2552 56.1957 22.9003 56.1253C20.4276 55.6368 17.9551 55.1483 15.4824 54.6598C14.8047 54.5223 14.1485 54.9815 14.0222 55.6817C13.8927 56.3797 14.3363 57.0538 15.0131 57.1875C17.4858 57.676 19.9583 58.1645 22.431 58.653C22.51 58.6693 22.5891 58.6762 22.6664 58.6762ZM15.2245 48.4889C18.3819 50.2899 21.5393 52.0909 24.6967 53.8919C25.2996 54.2383 26.0607 54.0127 26.3933 53.3891C26.7272 52.7671 26.5088 51.9838 25.9057 51.6396C22.7482 49.8386 19.5909 48.0376 16.4335 46.2366C15.5928 45.7567 14.5636 46.3954 14.581 47.386C14.589 47.8458 14.8343 48.2662 15.2245 48.4889ZM26.7485 48.4906C27.1787 49.0467 27.9654 49.136 28.5025 48.6897C29.04 48.2451 29.1264 47.4354 28.6956 46.881C27.0728 44.7926 25.4499 42.7042 23.8272 40.6157C23.2086 39.8576 22.0262 40.0742 21.6988 41.0056C21.5539 41.4176 21.6223 41.8771 21.8801 42.2254C23.5029 44.3138 25.1258 46.4022 26.7485 48.4906Z" style=""></path></svg> 