<?xml version="1.0" encoding="UTF-8"?> <svg xmlns="http://www.w3.org/2000/svg" viewBox="0 0 100.00 100.00"><path color="rgb(51, 51, 51)" fill-rule="evenodd" fill="#b0c7dd" x="0" y="0" width="100" height="100" id="tSvg23e02d5aa5" title="Rectangle 6" fill-opacity="1" stroke="none" stroke-opacity="1" d="M0 0H100V100H0Z"></path><path fill="#ffffff" stroke="#000000" fill-opacity="1" stroke-width="0" stroke-opacity="1" color="rgb(51, 51, 51)" fill-rule="evenodd" id="tSvg9d8ddbca5c" title="Path 15" d="M71.7484 39.0241C71.7484 38.3103 71.7484 37.5965 71.7484 36.8827C74.343 35.2965 76.0218 32.362 76.0218 29.1896C76.0218 27.9206 76.0218 26.6516 76.0218 25.3827C76.0218 20.4654 72.2063 16.4999 67.4751 16.4999C62.7438 16.4999 58.852 20.4654 58.852 25.3827C58.852 26.6516 58.852 27.9206 58.852 29.1896C58.852 32.2827 60.3782 35.1379 62.9728 36.7241C62.9728 37.4907 62.9728 38.2574 62.9728 39.0241C61.8281 39.3413 60.7598 39.8172 59.6914 40.4516C58.0126 36.4068 54.1208 33.5516 49.6185 33.5516C45.1925 33.5516 41.4534 36.2482 39.6982 40.2137C38.7062 39.7379 37.7142 39.262 36.7221 39.0241C36.7221 38.3103 36.7221 37.5965 36.7221 36.8827C39.3167 35.2965 40.9955 32.362 40.9955 29.1896C40.9955 27.9206 40.9955 26.6516 40.9955 25.3827C40.9955 20.4654 37.18 16.4999 32.4488 16.4999C27.7176 16.4999 23.9021 20.4654 23.9021 25.3827C23.9021 26.6516 23.9021 27.9206 23.9021 29.1896C23.9021 32.2827 25.4283 35.1379 28.0228 36.7241C28.0228 37.4907 28.0228 38.2574 28.0228 39.0241C21.1549 41.0861 16.5 47.5103 16.5 54.9654C16.5 55.5999 17.0342 56.1551 17.6446 56.1551C25.2502 56.1551 32.8558 56.1551 40.4613 56.1551C41.377 57.662 42.6743 58.931 44.2005 59.8827C44.2005 61.0723 44.2005 62.262 44.2005 63.4516C35.1196 65.9896 28.9385 74.4758 28.9385 84.3103C28.9385 84.9448 29.4727 85.4999 30.0832 85.4999C43.1831 85.4999 56.2829 85.4999 69.3828 85.4999C69.9933 85.4999 70.5275 84.9448 70.5275 84.3103C70.5275 74.5551 64.0411 65.9103 55.0365 63.4516C55.0365 62.3149 55.0365 61.1781 55.0365 60.0413C56.639 59.0896 57.9363 57.8206 58.9283 56.2344C66.7374 56.2344 74.5464 56.2344 82.3555 56.2344C82.966 56.2344 83.5001 55.6792 83.5001 55.0448C83.4238 47.5896 78.54 41.0068 71.7484 39.0241ZM18.7893 53.8551C19.2472 47.6689 23.5205 42.593 29.3964 41.1654C29.9306 41.0068 30.3121 40.531 30.3121 39.9758C30.3121 38.6539 30.3121 37.3321 30.3121 36.0103C30.3121 35.5344 30.0832 35.1379 29.7016 34.9792C27.5649 33.8689 26.1914 31.6482 26.1914 29.1896C26.1914 27.9206 26.1914 26.6516 26.1914 25.3827C26.1914 21.8137 29.0148 18.8792 32.4488 18.8792C35.8827 18.8792 38.7062 21.8137 38.7062 25.3827C38.7062 26.6516 38.7062 27.9206 38.7062 29.1896C38.7062 31.6482 37.2563 33.9482 35.1196 35.0585C34.7381 35.2172 34.4328 35.693 34.4328 36.1689C34.4328 37.4379 34.4328 38.7068 34.4328 39.9758C34.4328 40.531 34.8144 41.0068 35.3486 41.1654C36.6458 41.4827 37.8668 41.9585 39.0114 42.593C38.8588 43.3861 38.7825 44.1792 38.7825 45.0516C38.7825 46.7436 38.7825 48.4356 38.7825 50.1275C38.7825 51.3965 39.0114 52.6654 39.393 53.8551C32.5251 53.8551 25.6572 53.8551 18.7893 53.8551ZM53.3577 58.2172C52.9762 58.3758 52.6709 58.8516 52.6709 59.3275C52.6709 61.0195 52.6709 62.7114 52.6709 64.4034C52.6709 64.9585 53.0525 65.4344 53.5866 65.593C61.6755 67.4172 67.6277 74.7137 68.1618 83.1999C55.8505 83.1999 43.5392 83.1999 31.2278 83.1999C31.6857 74.7137 37.4852 67.5758 45.5741 65.6723C46.1083 65.5137 46.4898 65.0379 46.4898 64.4827C46.4898 62.7379 46.4898 60.993 46.4898 59.2482C46.4898 58.7723 46.2609 58.3758 45.8793 58.2172C42.9032 56.7103 41.0718 53.6172 41.0718 50.2068C41.0718 48.5149 41.0718 46.8229 41.0718 45.131C41.0718 40.1344 44.9636 36.1689 49.6948 36.1689C54.4261 36.1689 58.3179 40.2137 58.3179 45.131C58.3179 46.7965 58.3179 48.462 58.3179 50.1275C58.3179 53.5379 56.4101 56.7103 53.3577 58.2172ZM59.9967 53.8551C60.3782 52.6654 60.6072 51.3965 60.6072 50.1275C60.6072 48.4356 60.6072 46.7436 60.6072 45.0516C60.6072 44.3379 60.5308 43.5448 60.3782 42.9103C61.5992 42.1172 62.9728 41.562 64.3463 41.2448C64.8805 41.0861 65.2621 40.6103 65.2621 40.0551C65.2621 38.7333 65.2621 37.4114 65.2621 36.0896C65.2621 35.6137 65.0331 35.2172 64.6516 35.0585C62.5149 33.9482 61.1413 31.7275 61.1413 29.2689C61.1413 27.9999 61.1413 26.731 61.1413 25.462C61.1413 21.893 63.9648 18.9585 67.3987 18.9585C70.8327 18.9585 73.6562 21.893 73.6562 25.462C73.6562 26.731 73.6562 27.9999 73.6562 29.2689C73.6562 31.7275 72.2063 34.0275 70.0696 35.1379C69.688 35.2965 69.3828 35.7723 69.3828 36.2482C69.3828 37.5172 69.3828 38.7861 69.3828 40.0551C69.3828 40.6103 69.7644 41.0861 70.2985 41.2448C76.1744 42.593 80.5241 47.8275 81.0582 53.9344C74.0377 53.908 67.0172 53.8815 59.9967 53.8551Z" style=""></path></svg> 