<?xml version="1.0" encoding="UTF-8"?> <svg xmlns="http://www.w3.org/2000/svg" viewBox="0 0 100.00 100.00"><path fill="#b0c7dd" stroke="none" fill-opacity="1" stroke-width="1" stroke-opacity="1" color="rgb(51, 51, 51)" fill-rule="evenodd" x="0" y="0" width="100" height="100" id="tSvg4d1030b8c" title="Rectangle 5" d="M0 0C33.3333 0 66.6667 0 100 0C100 33.3333 100 66.6667 100 100C66.6667 100 33.3333 100 0 100C0 66.6667 0 33.3333 0 0Z"></path><path fill="#ffffff" stroke="#000000" fill-opacity="1" stroke-width="0" stroke-opacity="1" color="rgb(51, 51, 51)" fill-rule="evenodd" id="tSvg216b85ab09" title="Path 12" d="M79.2094 75.2381C60.1653 75.2381 41.1213 75.2381 22.0771 75.2381C22.0771 62.0424 22.0771 48.8465 22.0771 35.6508C40.6917 35.6508 59.3061 35.6508 77.9207 35.6508C77.9207 37.6332 77.9207 39.6157 77.9207 41.5981C77.9207 42.6612 78.9946 43.3256 79.8537 42.794C80.2525 42.5474 80.4981 42.0915 80.4981 41.5981C80.4981 34.8468 80.4981 28.0954 80.4981 21.3441C80.4794 20.5958 79.9079 19.9997 79.2094 20C59.7357 20 40.2621 20 20.7885 20C20.0767 20 19.4998 20.6183 19.4998 21.381C19.4998 39.7937 19.4998 58.2063 19.4998 76.619C19.4998 77.3817 20.0767 78 20.7885 78C40.2621 78 59.7357 78 79.2094 78C80.2014 78 80.8215 76.8492 80.3254 75.9286C80.0952 75.5013 79.6698 75.2381 79.2094 75.2381ZM77.9207 22.7619C77.9207 26.1376 77.9207 29.5132 77.9207 32.8889C59.3061 32.8889 40.6917 32.8889 22.0771 32.8889C22.0771 29.5132 22.0771 26.1376 22.0771 22.7619C40.6917 22.7619 59.3061 22.7619 77.9207 22.7619Z" style=""></path><path fill="#ffffff" stroke="#000000" fill-opacity="1" stroke-width="0" stroke-opacity="1" color="rgb(51, 51, 51)" fill-rule="evenodd" id="tSvg18fde2c5cb9" title="Path 13" d="M27.7109 30.0102C29.3233 30.0102 30.9357 30.0102 32.5481 30.0102C33.4791 30.0102 34.0609 28.9643 33.5954 28.1276C33.3794 27.7392 32.9802 27.5 32.5481 27.5C30.9357 27.5 29.3233 27.5 27.7109 27.5C26.78 27.5 26.1981 28.5459 26.6636 29.3827C26.8796 29.771 27.2788 30.0102 27.7109 30.0102ZM38.9978 30.0102C40.6102 30.0102 42.2227 30.0102 43.8351 30.0102C44.766 30.0102 45.3479 28.9643 44.8824 28.1276C44.6664 27.7392 44.2671 27.5 43.8351 27.5C42.2227 27.5 40.6102 27.5 38.9978 27.5C38.0669 27.5 37.4851 28.5459 37.9506 29.3827C38.1665 29.771 38.5658 30.0102 38.9978 30.0102ZM90.4985 57.2543C90.4985 57.2181 90.4985 57.1817 90.4985 57.1455C90.5006 57.1037 90.5006 57.0618 90.4985 57.02C90.4985 56.8583 90.4985 56.6964 90.4985 56.5347C90.5006 56.4929 90.5006 56.451 90.4985 56.4092C90.4985 56.373 90.4985 56.3366 90.4985 56.3004C90.4824 56.2613 90.4663 56.2223 90.4501 56.1833C90.4286 56.147 90.4072 56.1107 90.3857 56.0745C90.3722 56.0494 90.3588 56.0243 90.3453 55.9992C90.0148 55.5724 82.1462 45.0714 71.9557 45.0714C60.7655 45.0714 52.5099 55.5557 52.1632 55.9992C52.1417 56.0327 52.1203 56.0661 52.0987 56.0996C52.0772 56.1331 52.0558 56.1665 52.0342 56.2C52.0159 56.2409 51.9997 56.2828 51.9859 56.3255C51.9859 56.359 51.9859 56.3924 51.9859 56.4259C51.9835 56.4705 51.9835 56.5152 51.9859 56.5598C51.9859 56.716 51.9859 56.8721 51.9859 57.0284C51.9835 57.073 51.9835 57.1176 51.9859 57.1622C51.9859 57.1957 51.9859 57.2292 51.9859 57.2627C51.9997 57.3054 52.0159 57.3472 52.0342 57.3882C52.0558 57.4216 52.0772 57.4551 52.0987 57.4886C52.1203 57.522 52.1417 57.5555 52.1632 57.589C52.5099 58.0157 60.7655 68.5 71.9557 68.5C82.1462 68.5 90.0148 57.999 90.3453 57.5471C90.3588 57.522 90.3722 57.4969 90.3857 57.4718C90.4072 57.4356 90.4286 57.3993 90.4501 57.3631C90.4663 57.3268 90.4824 57.2905 90.4985 57.2543ZM71.9557 65.9898C63.5953 65.9898 56.7989 59.1369 54.7109 56.7857C56.7989 54.4345 63.5792 47.5816 71.9557 47.5816C79.4615 47.5816 85.8548 54.4596 87.8058 56.7857C85.8628 59.1118 79.4615 65.9898 71.9557 65.9898Z" style=""></path><path fill="#ffffff" stroke="#000000" fill-opacity="1" stroke-width="0" stroke-opacity="1" color="rgb(51, 51, 51)" fill-rule="evenodd" id="tSvg1473835485" title="Path 14" d="M71.5049 51C66.5049 51 63.3799 56 65.8799 60C68.3798 64 74.6299 64 77.1298 60C77.6998 59.0879 78 58.0532 78 57C77.9958 53.6879 75.0902 51.0039 71.5049 51ZM71.5049 60.8824C68.2696 60.8824 66.2475 57.6471 67.8652 55.0588C69.4828 52.4706 73.5269 52.4706 75.1445 55.0588C75.5134 55.649 75.7076 56.3185 75.7076 57C75.7034 59.1426 73.8242 60.8785 71.5049 60.8824Z" style=""></path></svg> 