<?xml version="1.0" encoding="UTF-8"?> <svg xmlns="http://www.w3.org/2000/svg" viewBox="0 0 100.00 100.00"><path color="rgb(51, 51, 51)" fill-rule="evenodd" fill="#b0c7dd" x="0" y="0" width="100" height="100" id="tSvg146f244e289" title="Rectangle 7" fill-opacity="1" stroke="none" stroke-opacity="1" d="M0 0H100V100H0Z"></path><path fill="#ffffff" stroke="#ffffff" fill-opacity="1" stroke-width="0" stroke-opacity="1" color="rgb(51, 51, 51)" fill-rule="evenodd" id="tSvg16d768e766c" title="Path 16" d="M37.6009 47.2389C41.0955 47.2389 44.4508 47.9777 47.575 49.4356C48.4638 49.8386 49.4689 49.1567 49.3842 48.2081C49.3457 47.778 49.079 47.3984 48.6804 47.2067C45.225 45.5901 41.4368 44.7552 37.6009 44.7651C23.4848 44.7651 12 55.9111 12 69.6101C12 70.2932 12.5707 70.847 13.2745 70.847C20.6407 70.847 28.0069 70.847 35.3731 70.847C36.3542 70.847 36.9674 69.8162 36.4768 68.9916C36.2492 68.6089 35.8284 68.3732 35.3731 68.3732C28.4434 68.3732 21.5136 68.3732 14.5838 68.3732C15.2474 56.6104 25.3175 47.2389 37.6009 47.2389ZM37.1744 42.6187C45.3489 42.6187 51.9999 36.1646 51.9999 28.232C51.9999 20.3002 45.3489 13.847 37.1744 13.847C29.0024 13.847 22.3548 20.3002 22.3548 28.232C22.3539 36.1646 29.0024 42.6187 37.1744 42.6187ZM37.1744 16.3208C43.9444 16.3208 49.451 21.6641 49.451 28.232C49.451 34.8007 43.9444 40.1449 37.1744 40.1449C30.4077 40.1449 24.9037 34.8007 24.9037 28.232C24.9029 21.6641 30.4077 16.3208 37.1744 16.3208Z" style=""></path><path fill="#ffffff" stroke="#ffffff" fill-opacity="1" stroke-width="0" stroke-opacity="1" color="rgb(51, 51, 51)" fill-rule="evenodd" id="tSvg13573f20eb7" title="Path 17" d="M77.0852 53.9998C68.0286 53.9998 58.9719 53.9998 49.9152 53.9998C47.7538 54.0024 46.0023 55.8039 45.9998 58.027C45.9998 63.6903 45.9998 69.3536 45.9998 75.0169C46.0019 77.2397 47.7533 79.0411 49.9144 79.0433C50.8921 79.0433 51.8698 79.0433 52.8475 79.0433C52.8475 81.3042 52.8475 83.5651 52.8475 85.826C52.8467 86.4746 53.3581 87.0007 53.9888 86.9998C54.2738 86.9998 54.5484 86.8901 54.7588 86.6923C57.4722 84.1426 60.1857 81.593 62.8991 79.0433C67.6281 79.0433 72.357 79.0433 77.086 79.0433C79.2465 79.0407 80.9973 77.2399 80.9998 75.0177C80.9998 69.3539 80.9998 63.69 80.9998 58.0262C80.9977 55.8034 79.2463 54.002 77.0852 53.9998ZM78.7173 75.0169C78.716 75.943 77.9864 76.6935 77.086 76.6948C72.2094 76.6948 67.3329 76.6948 62.4563 76.6948C62.1713 76.6948 61.8967 76.8045 61.6863 77.0023C59.5009 79.0558 57.3155 81.1093 55.1301 83.1628C55.1301 81.3981 55.1301 79.6334 55.1301 77.8686C55.1301 77.2203 54.6191 76.6948 53.9888 76.6948C52.6307 76.6948 51.2725 76.6948 49.9144 76.6948C49.0134 76.6939 48.2832 75.9429 48.2824 75.0161C48.2824 69.3528 48.2824 63.6895 48.2824 58.0262C48.2824 57.1004 49.0151 56.3468 49.9152 56.3468C58.9719 56.3468 68.0286 56.3468 77.0852 56.3468C77.9853 56.3468 78.7173 57.0996 78.7173 58.0254C78.7173 63.6893 78.7173 69.3531 78.7173 75.0169Z" style=""></path><path fill="#ffffff" stroke="#ffffff" fill-opacity="1" stroke-width="0" stroke-opacity="1" color="rgb(51, 51, 51)" fill-rule="evenodd" id="tSvgdffdabf580" title="Path 18" d="M54 65.847C52.4604 65.847 51.4982 67.5137 52.268 68.847C52.6252 69.4658 53.2855 69.847 54 69.847C55.5396 69.847 56.5019 68.1803 55.7321 66.847C55.3748 66.2282 54.7146 65.847 54 65.847ZM64 65.847C62.4604 65.847 61.4982 67.5137 62.268 68.847C62.6252 69.4658 63.2855 69.847 64 69.847C65.5396 69.847 66.5019 68.1803 65.7321 66.847C65.3748 66.2282 64.7146 65.847 64 65.847ZM73 65.847C71.4604 65.847 70.4982 67.5137 71.268 68.847C71.6252 69.4658 72.2855 69.847 73 69.847C74.5396 69.847 75.5019 68.1803 74.7321 66.847C74.3748 66.2282 73.7146 65.847 73 65.847Z"></path></svg> 