<?xml version="1.0" encoding="UTF-8"?> <svg xmlns="http://www.w3.org/2000/svg" viewBox="0 0 100.00 100.00"><path fill="#b0c7dd" stroke="none" fill-opacity="1" stroke-width="1" stroke-opacity="1" color="rgb(51, 51, 51)" fill-rule="evenodd" x="0" y="0" width="100" height="100" rx="50" ry="50" id="tSvg10388080352" title="Rectangle 3" d="M0 50C0 22.3858 22.3858 0 50 0C50 0 50 0 50 0C77.6142 0 100 22.3858 100 50C100 50 100 50 100 50C100 77.6142 77.6142 100 50 100C50 100 50 100 50 100C22.3858 100 0 77.6142 0 50Z"></path><path fill="#ffffff" stroke="#ffffff" fill-opacity="1" stroke-width="0" stroke-opacity="1" color="rgb(51, 51, 51)" fill-rule="evenodd" id="tSvg83a954023b" title="Path 10" d="M33.3649 31.5C32.8682 31.5 32.4654 31.9331 32.4654 32.4671C32.4654 34.2363 32.4654 36.0055 32.4654 37.7748C32.4654 38.5191 33.215 38.9844 33.8146 38.6122C34.0928 38.4394 34.2643 38.1203 34.2643 37.7748C34.2643 36.3279 34.2643 34.881 34.2643 33.4341C47.2431 33.4341 60.2219 33.4341 73.2007 33.4341C73.2007 41.553 73.2007 49.672 73.2007 57.7909C71.9623 57.7909 70.7238 57.7909 69.4853 57.7909C68.7929 57.7909 68.3602 58.5967 68.7064 59.2414C68.8671 59.5406 69.1639 59.7249 69.4853 59.7249C71.0236 59.7249 72.5619 59.7249 74.1002 59.7249C74.5969 59.7249 74.9997 59.2919 74.9997 58.7579C74.9997 49.9945 74.9997 41.2311 74.9997 32.4677C74.9997 31.9337 74.5969 31.5007 74.1002 31.5007C60.5218 31.5007 46.9433 31.5007 33.3649 31.5ZM25.8998 39.6063C25.4031 39.6063 25.0004 40.0393 25.0004 40.5733C25.0004 50.2264 25.0004 59.8795 25.0004 69.5325C25.0004 70.0665 25.4031 70.4995 25.8998 70.4995C39.6604 70.4995 53.4209 70.4995 67.1815 70.4995C67.6782 70.4995 68.0809 70.0665 68.0809 69.5325C68.0809 59.8795 68.0809 50.2264 68.0809 40.5733C68.0809 40.0393 67.6782 39.6063 67.1815 39.6063C53.4209 39.6063 39.6604 39.6063 25.8998 39.6063ZM26.7993 68.5642C26.7993 67.4712 26.7993 66.3783 26.7993 65.2853C30.2513 61.2303 33.7033 57.1752 37.1553 53.1202C40.0613 56.5623 42.9674 60.0045 45.8735 63.4467C46.1924 63.8249 46.7298 63.8715 47.101 63.5531C49.0695 61.8644 51.0379 60.1758 53.0064 58.4871C54.8945 60.1719 56.7826 61.8567 58.6706 63.5415C58.8321 63.6854 59.0354 63.7641 59.2451 63.7639C61.5905 63.7645 63.936 63.7652 66.2814 63.7658C66.2814 65.3655 66.2814 66.9652 66.2814 68.5648C53.1207 68.5648 39.96 68.5648 26.7993 68.5642ZM59.5701 61.8305C61.8074 61.8309 64.0447 61.8313 66.282 61.8318C66.282 55.068 66.282 48.3042 66.282 41.5404C53.1211 41.5404 39.9602 41.5404 26.7993 41.5404C26.7993 48.5008 26.7993 55.4612 26.7993 62.4217C30.0312 58.6253 33.2631 54.829 36.495 51.0327C36.8524 50.6126 37.4685 50.6138 37.8245 51.0353C40.7627 54.5153 43.701 57.9953 46.6393 61.4753C48.5788 59.8118 50.5182 58.1483 52.4577 56.4848C52.7909 56.199 53.2648 56.2039 53.5928 56.4964C55.5857 58.2742 57.5785 60.052 59.5701 61.8305ZM57.0276 47.9807C57.0276 46.5188 58.4997 45.6049 59.6775 46.3359C60.2239 46.6753 60.5607 47.3021 60.5607 47.9807C60.5607 49.4429 59.0886 50.3566 57.9109 49.6255C57.3644 49.2862 57.0276 48.6594 57.0276 47.9807ZM58.7942 44.1481C56.0496 44.1098 54.2958 47.28 55.6372 49.8544C56.276 51.0804 57.4873 51.8323 58.7942 51.814C61.5388 51.7758 63.2154 48.5577 61.8124 46.0215C61.178 44.8749 60.0348 44.1655 58.7942 44.1481Z" style=""></path></svg> 