<?xml version="1.0" encoding="UTF-8"?> <svg xmlns="http://www.w3.org/2000/svg" viewBox="0 0 100.00 100.00"><path color="rgb(51, 51, 51)" fill-rule="evenodd" fill="#b0c7dd" x="0" y="0" width="100" height="100" id="tSvg14bd5d7cc18" title="Rectangle 4" fill-opacity="1" stroke="none" stroke-opacity="1" d="M0 0H100V100H0Z"></path><path fill="#fefefe" stroke="#fefefe" fill-opacity="1" stroke-width="0" stroke-opacity="1" color="rgb(51, 51, 51)" fill-rule="evenodd" id="tSvg610e474a71" title="Path 11" d="M84.5002 17.5001C69.5564 17.5001 54.6126 17.5001 39.6688 17.5001C39.6688 23.6703 39.6688 29.8404 39.6688 36.0105C32.9459 36.0105 26.223 36.0105 19.5001 36.0105C19.5001 48.0816 19.5001 60.1527 19.5001 72.2238C23.2553 72.2238 27.0104 72.2238 30.7656 72.2238C34.6295 76.3159 38.4934 80.408 42.3573 84.5001C42.3593 80.408 42.3612 76.3159 42.3632 72.2238C50.3711 72.2238 58.3789 72.2238 66.3868 72.2238C66.3868 66.054 66.3868 59.8841 66.3868 53.7142C72.4246 53.7142 78.4624 53.7142 84.5002 53.7142C84.5002 41.6429 84.5002 29.5715 84.5002 17.5001ZM63.8648 69.6983C55.8575 69.6983 47.8502 69.6983 39.8429 69.6983C39.8415 72.5172 39.8401 75.336 39.8387 78.1548C37.1768 75.336 34.5148 72.5172 31.8529 69.6983C28.5766 69.6983 25.3002 69.6983 22.0238 69.6983C22.0238 59.3115 22.0238 48.9246 22.0238 38.5377C27.9058 38.5377 33.7877 38.5377 39.6696 38.5377C39.6696 43.5968 39.6696 48.656 39.6696 53.7151C42.9011 53.7151 46.1327 53.7151 49.3642 53.7151C49.3642 57.5054 49.3642 61.2957 49.3642 65.0861C53.2208 61.2957 57.0774 57.5054 60.934 53.7151C61.911 53.7151 62.8879 53.7151 63.8648 53.7151C63.8648 59.0428 63.8648 64.3706 63.8648 69.6983ZM81.9773 51.1887C74.6189 51.1887 67.2606 51.1887 59.9022 51.1887C57.2302 53.8147 54.5582 56.4407 51.8862 59.0667C51.8862 56.4407 51.8862 53.8147 51.8862 51.1887C48.6547 51.1887 45.4232 51.1887 42.1917 51.1887C42.1917 40.8013 42.1917 30.4139 42.1917 20.0264C55.4535 20.0264 68.7154 20.0264 81.9773 20.0264C81.9773 30.4139 81.9773 40.8013 81.9773 51.1887Z" style=""></path><path fill="#fefefe" stroke="#fefefe" fill-opacity="1" stroke-width="0" stroke-opacity="1" color="rgb(51, 51, 51)" fill-rule="evenodd" id="tSvgabc2626384" title="Path 12" d="M56.3355 35.9999C56.3393 35.9999 56.3432 35.9999 56.347 35.9999C58.1866 35.9893 59.6713 34.4184 59.6671 32.4872C59.664 31.5524 59.3144 30.6746 58.6818 30.016C58.0491 29.3575 57.2023 29.0025 56.321 29.0001C55.4357 29.0005 54.5876 29.3733 53.9663 30.0353C53.3415 30.6923 52.9935 31.5846 53.0001 32.5129C53.0098 34.4401 54.4997 35.9977 56.3355 35.9999ZM55.5958 31.7323C55.7908 31.5251 56.0517 31.411 56.3294 31.4102C56.3309 31.4102 56.3325 31.4102 56.334 31.4102C56.9063 31.4089 57.3712 31.8951 57.3721 32.496C57.3734 33.0978 56.911 33.5874 56.3378 33.5914C56.3365 33.5914 56.3353 33.5914 56.334 33.5914C55.7616 33.5905 55.2973 33.1049 55.2943 32.504C55.2924 32.2148 55.401 31.9368 55.5958 31.7323ZM66.6684 35.9999C66.6722 35.9999 66.676 35.9999 66.6799 35.9999C67.5647 35.9985 68.4122 35.6257 69.0338 34.9647C69.6588 34.3076 70.0068 33.4149 70 32.4864C69.9992 31.5582 69.6447 30.6689 69.0154 30.0168C68.3925 29.3563 67.5407 28.9896 66.6554 29.0009C65.7696 29.0016 64.9208 29.3744 64.2984 30.0361C63.6739 30.6932 63.3259 31.5854 63.3322 32.5137C63.3427 34.4407 64.8327 35.9977 66.6684 35.9999ZM65.9286 31.7331C66.1245 31.5259 66.3853 31.4118 66.6646 31.4102C66.6661 31.4102 66.6676 31.4102 66.6692 31.4102C66.9438 31.4102 67.2031 31.5226 67.3982 31.7266C67.5948 31.9314 67.7034 32.2053 67.705 32.496C67.705 32.4965 67.705 32.4971 67.705 32.4976C67.7057 32.7883 67.5994 33.0622 67.4043 33.2686C67.2093 33.4758 66.9484 33.5898 66.6715 33.5914C66.6702 33.5914 66.6689 33.5914 66.6676 33.5914C66.0953 33.5905 65.6309 33.1049 65.628 32.504C65.626 32.2152 65.7343 31.9375 65.9286 31.7331Z" style=""></path></svg> 