<svg xmlns="http://www.w3.org/2000/svg" viewBox="0 0 100 100" fill-rule="evenodd"><rect x="0" y="0" width="100" height="100" fill="#b0c7d7"></rect><g class="t-group-origins"><path d="M45.452 20.326c5.289 0 9.593-4.304 9.593-9.593S50.741 1.14 45.452 1.14s-9.593 4.303-9.593 9.593 4.304 9.593 9.593 9.593zm0-16.186a6.6 6.6 0 0 1 6.593 6.593c0 3.636-2.957 6.593-6.593 6.593s-6.593-2.958-6.593-6.593a6.6 6.6 0 0 1 6.593-6.593z" stroke-width="0" stroke="#ffffff" fill="#ffffff" stroke-width-old="0"></path><path d="M96.535 61.135c0-4.375-1.972-7.549-6.721-10.093 3.958-2.175 6.721-5.062 6.721-8.815 0-2.017-.775-3.798-2.305-5.294-4.694-4.594-15.681-5.224-19.744-5.296v-4.228a1.5 1.5 0 0 0-1.5-1.5H48.133a1.46 1.46 0 0 0-.249-.021h-6.141L17.851 13.123a1.501 1.501 0 0 0-2.03.616l-2.697 5.048a1.504 1.504 0 0 0 .617 2.031L33.22 31.225v16.667L8.332 34.595a1.502 1.502 0 0 0-2.03.616l-3.723 6.966a1.504 1.504 0 0 0 .617 2.031l35.29 18.854V96.08a1.5 1.5 0 0 0 1.5 1.5h7.898a1.5 1.5 0 0 0 1.5-1.5V34.633h23.602l.017-.002.015.001c3.968-.083 15.137.551 19.115 4.446.943.923 1.401 1.953 1.401 3.149 0 3.258-3.65 5.657-7.247 7.229-2.812-1.075-6.274-2.039-10.467-2.951-17.323-3.766-20.478 1.601-21.027 4.085-.254 1.143.03 2.3.801 3.26 1.528 1.905 4.738 2.912 9.283 2.912 4.563 0 14.007-1.132 21.398-4.072 5.819 2.46 7.259 5.184 7.259 8.444 0 2.967-1.835 5.066-4.56 6.548-10.171-4.114-23.107-4.541-28.167-2.079-2.053.999-2.515 2.329-2.54 3.269-.033 1.189.385 2.251 1.208 3.071 2.31 2.3 7.395 2.338 12.404 2.177 7.96-.254 13.463-1.442 17.214-3.128 1.833.821 3.544 1.783 5.048 2.896a1.499 1.499 0 0 0 2.099-.314 1.5 1.5 0 0 0-.313-2.098 28.283 28.283 0 0 0-3.682-2.288c3.3-2.418 4.29-5.375 4.29-8.053zM71.486 31.632H47.884a1.5 1.5 0 0 0-1.5 1.5v61.447h-4.898V62.162a1.5 1.5 0 0 0-.793-1.323L5.933 42.268l2.309-4.32 25.771 13.77a1.501 1.501 0 0 0 2.208-1.324V30.326a1.5 1.5 0 0 0-.793-1.323L16.479 18.879l1.283-2.402 22.899 12.235c.218.116.461.177.707.177h6.268c.081.014.164.021.249.021h23.602l-.001 2.722zm-6.608 22.131c-4.062 0-6.25-.924-6.943-1.79-.261-.324-.25-.562-.213-.732.304-1.363 2.367-3.023 7.796-3.023 2.473 0 5.646.345 9.667 1.219 2.502.544 4.678 1.096 6.564 1.66-6.525 1.952-13.609 2.666-16.871 2.666zm6.907 17.36c-2.575.083-8.605.275-10.191-1.305-.239-.238-.337-.496-.327-.861.002-.04.154-.314.854-.655 1.573-.766 4.399-1.188 7.828-1.188 4.396 0 9.782.694 14.788 2.248-4.228 1.222-9.182 1.641-12.952 1.761z" stroke-width="0" stroke="#ffffff" fill="#ffffff" stroke-width-old="0"></path></g></svg>
