<svg xmlns="http://www.w3.org/2000/svg" viewBox="0 0 100 100" fill-rule="evenodd"><rect x="0" y="0" width="100" height="100" fill="#b0c7dd"></rect><g class="t-group-origins"><path d="M83.271 86.072c.047-.145.079-.298.079-.459V46.68l-.002-.019c-.001-.061-.01-.122-.018-.183-.005-.038-.006-.076-.014-.113-.01-.049-.029-.095-.044-.143l-.002-.005c-.007-.02-.011-.04-.019-.06-.009-.024-.015-.049-.025-.072-.015-.035-.038-.068-.056-.103-.028-.053-.055-.107-.089-.156-.004-.005-.006-.011-.009-.016l-6.271-8.796v-6.155c.001-.023.007-.045.007-.068 0-.388-.151-.738-.393-1.004l-.001-.001-.002-.003c-.02-.022-.038-.045-.06-.066l-14.02-15.522-.001-.001a1.492 1.492 0 0 0-1.106-.494H27.427a1.5 1.5 0 0 0-1.5 1.5v21.823l-6.278 8.785-.009.015c-.037.053-.066.111-.096.168-.016.031-.036.06-.05.092-.01.024-.017.049-.026.074-.008.021-.012.041-.019.062l-.004.012c-.014.045-.032.089-.042.134-.008.038-.009.078-.015.118-.008.059-.017.118-.018.178l-.002.02v38.934c0 .165.033.32.082.468.007.02.011.039.018.058a1.5 1.5 0 0 0 .281.463c.007.008.009.018.016.026.006.007.014.012.021.018.048.05.102.094.157.138.026.02.049.044.076.062.064.044.133.08.203.114.02.01.038.023.058.032.181.077.38.12.589.12h60.98c.209 0 .408-.043.589-.121.028-.012.054-.03.081-.044.062-.031.124-.063.181-.102.03-.021.057-.048.086-.071.051-.041.101-.082.145-.129l.025-.022c.008-.009.01-.021.018-.03a1.5 1.5 0 0 0 .275-.458c.01-.022.015-.043.022-.065zM22.369 50.081l17.513 15.993-17.513 16.12V50.081zm19.736 18.024 8.243 7.528a1.496 1.496 0 0 0 2.024 0l8.14-7.434 17.465 15.914H24.713l17.392-16.008zm20.631-1.937L80.35 50.081v32.136L62.736 66.168zm-.01-47.062 9.199 10.185h-9.199V19.106zm17.131 27.363-3.056 2.791v-7.078l3.056 4.287zM59.726 16.7v14.091a1.5 1.5 0 0 0 1.5 1.5h12.575V52L59.584 64.983c-.068.053-.147.086-.208.152-.023.025-.029.057-.05.084l-7.966 7.276-22.433-20.488V16.7h30.799zM25.927 49.267l-3.064-2.798 3.064-4.287v7.085z" stroke-width="0" stroke="#ffffff" fill="#ffffff" stroke-width-old="0"></path><path d="m42.957 49.53-1.193 6.951a2.316 2.316 0 0 0 .899 2.265c.411.307.897.463 1.389.463.356 0 .716-.082 1.053-.25l6.406-3.245 6.071 3.195a2.304 2.304 0 0 0 2.447-.171 2.315 2.315 0 0 0 .929-2.281l-1.188-6.925 5.03-4.908a2.31 2.31 0 0 0 .592-2.387 2.3 2.3 0 0 0-1.874-1.579l-6.962-1.011-3.109-6.304a2.312 2.312 0 0 0-2.087-1.301h-.013a2.295 2.295 0 0 0-2.069 1.305l-3.114 6.299-6.952 1.01a2.3 2.3 0 0 0-1.878 1.576 2.312 2.312 0 0 0 .589 2.388l5.034 4.91zm4.419-7.029a1.5 1.5 0 0 0 1.129-.82l2.858-5.782 2.852 5.782c.219.443.642.75 1.13.821l6.384.927-4.617 4.505a1.502 1.502 0 0 0-.431 1.327l1.09 6.356-5.547-2.92a1.492 1.492 0 0 0-1.377-.011l-5.901 2.989 1.101-6.415a1.504 1.504 0 0 0-.431-1.328l-4.618-4.505 6.378-.926z" stroke-width="0" stroke="#ffffff" fill="#ffffff" stroke-width-old="0"></path></g></svg>
