<svg xmlns="http://www.w3.org/2000/svg" viewBox="0 0 100 100" fill-rule="evenodd"><rect x="0" y="0" width="100" height="100" fill="#b0c7d7"></rect><g class="t-group-origins"><path d="M51.5 52.893c-21.505 0-39 17.72-39 39.5a1.5 1.5 0 0 0 1.5 1.5h75a1.5 1.5 0 0 0 1.5-1.5c0-21.78-17.495-39.5-39-39.5zm2.104 16 2.87 22H45.647l3.137-22h4.82zM56 56.188v9.705h-9v-9.705c1.475-.188 2.975-.295 4.5-.295s3.025.107 4.5.295zm-12 .51v10.695a1.5 1.5 0 0 0 1.5 1.5h.254l-3.137 22H15.53C16.205 74.042 28.205 60.106 44 56.698zm15.49 34.195c-.002-.029.001-.057-.003-.086l-2.858-21.914h.871a1.5 1.5 0 0 0 1.5-1.5V56.698c15.795 3.408 27.795 17.344 28.47 34.195H59.49zM50.495 47.5c12.133 0 22.005-9.87 22.005-22.001C72.5 13.369 62.628 3.5 50.495 3.5 38.367 3.5 28.5 13.369 28.5 25.499c0 12.132 9.867 22.001 21.995 22.001zm0-41C60.974 6.5 69.5 15.023 69.5 25.499c0 10.477-8.525 19.001-19.005 19.001-10.474 0-18.995-8.524-18.995-19.001C31.5 15.023 40.021 6.5 50.495 6.5z" stroke-width="0" stroke="#ffffff" fill="#ffffff" stroke-width-old="0"></path></g></svg>
