<?xml version="1.0" encoding="UTF-8"?> <svg xmlns="http://www.w3.org/2000/svg" viewBox="0 0 100.00 100.00"><path color="rgb(51, 51, 51)" fill-rule="evenodd" fill="#b0c7dd" x="0" y="0" width="100" height="100" id="tSvga0c439eed3" title="Rectangle 3" fill-opacity="1" stroke="none" stroke-opacity="1" d="M0 0H100V100H0Z"></path><path fill="#fefefe" stroke="#fefefe" fill-opacity="1" stroke-width="0" stroke-opacity="1" color="rgb(51, 51, 51)" fill-rule="evenodd" id="tSvg194f2e7444b" title="Path 9" d="M78.9265 15.2218C78.5828 14.9883 78.1515 14.9356 77.7639 15.0796C71.5632 17.5693 65.3625 20.059 59.1618 22.5487C53.0247 22.5487 46.8877 22.5487 40.7506 22.5487C40.5591 22.5317 40.3664 22.5591 40.1866 22.6287C33.9136 25.1628 27.6406 27.697 21.3676 30.2312C20.8635 30.4134 20.5194 30.893 20.5 31.4404C20.5 46.8529 20.5 62.2653 20.5 77.6777C20.5084 78.5929 21.3933 79.2277 22.2353 78.9226C28.4417 76.4329 34.6482 73.9432 40.8547 71.4535C47.3822 71.4535 53.9097 71.4535 60.4372 71.4535C66.5107 68.9223 72.5841 66.3911 78.6575 63.8599C79.1813 63.6576 79.5202 63.1349 79.4992 62.5617C79.4992 47.1493 79.4992 31.7368 79.4992 16.3244C79.4984 15.8823 79.2839 15.4694 78.9265 15.2218ZM23.1029 32.383C28.5979 30.1719 34.0929 27.9608 39.588 25.7497C39.588 40.1959 39.588 54.6421 39.588 69.0882C34.0929 71.2993 28.5979 73.5104 23.1029 75.7215C23.1029 61.2753 23.1029 46.8292 23.1029 32.383ZM42.1909 25.2162C47.6859 25.2162 53.1809 25.2162 58.6759 25.2162C58.6759 39.7394 58.6759 54.2627 58.6759 68.7859C53.1809 68.7859 47.6859 68.7859 42.1909 68.7859C42.1909 54.2627 42.1909 39.7394 42.1909 25.2162ZM76.8962 61.6725C71.6904 63.8273 66.4846 65.9821 61.2788 68.1368C61.2788 53.6136 61.2788 39.0903 61.2788 24.5671C66.4846 22.4716 71.6904 20.3761 76.8962 18.2806C76.8962 32.7446 76.8962 47.2085 76.8962 61.6725Z" style=""></path><path fill="#fefefe" stroke="#fefefe" fill-opacity="1" stroke-width="0" stroke-opacity="1" color="rgb(51, 51, 51)" fill-rule="evenodd" id="tSvg9b085948e3" title="Path 10" d="M66.0436 36.6726C66.1787 36.6731 66.3125 36.6364 66.4368 36.5646C68.7339 35.2411 71.031 33.9175 73.3281 32.594C74.0361 32.1851 74.151 30.8941 73.5348 30.2703C73.2489 29.9807 72.8703 29.9193 72.5417 30.1091C70.2424 31.4266 67.943 32.7441 65.6437 34.0616C64.9247 34.4323 64.7724 35.7154 65.3695 36.3713C65.5593 36.5798 65.7992 36.687 66.0436 36.6726ZM66.0436 42.3268C66.1787 42.3273 66.3125 42.2906 66.4368 42.2188C68.7339 40.8953 71.031 39.5718 73.3281 38.2482C74.0551 37.9069 74.2359 36.6306 73.6537 35.9508C73.3448 35.5901 72.9046 35.5195 72.5417 35.7723C70.2424 37.0928 67.943 38.4133 65.6437 39.7338C64.9357 40.1413 64.8197 41.4313 65.4349 42.0559C65.6085 42.2322 65.8198 42.3273 66.0436 42.3268ZM72.5417 41.4355C70.2424 42.759 67.943 44.0825 65.6437 45.406C64.9357 45.815 64.8209 47.1059 65.437 47.7298C65.723 48.0193 66.1015 48.0808 66.4301 47.891C68.7272 46.5675 71.0244 45.244 73.3215 43.9205C74.0295 43.5115 74.1443 42.2206 73.5282 41.5967C73.2422 41.3072 72.8636 41.2457 72.5417 41.4355Z" style=""></path></svg> 