<?xml version="1.0" encoding="UTF-8"?> <svg xmlns="http://www.w3.org/2000/svg" viewBox="0 0 100.00 100.00"><path fill="#b0c7dd" stroke="none" fill-opacity="1" stroke-width="1" stroke-opacity="1" color="rgb(51, 51, 51)" fill-rule="evenodd" x="0" y="0" width="100" height="100" rx="50" ry="50" id="tSvg5f9a4e4caf" title="Rectangle 2" d="M0 50C0 22.3858 22.3858 0 50 0C50 0 50 0 50 0C77.6142 0 100 22.3858 100 50C100 50 100 50 100 50C100 77.6142 77.6142 100 50 100C50 100 50 100 50 100C22.3858 100 0 77.6142 0 50Z"></path><path fill="#ffffff" stroke="#ffffff" fill-opacity="1" stroke-width="1" stroke-opacity="1" color="rgb(51, 51, 51)" fill-rule="evenodd" id="tSvg126f0c4b11c" title="Path 6" d="M30.9998 37.4999C30.9998 45.8332 30.9998 54.1665 30.9998 62.4998C43.6666 62.4998 56.3333 62.4998 69 62.4998C69 54.1665 69 45.8332 69 37.4999C56.3333 37.4999 43.6666 37.4999 30.9998 37.4999ZM49.9995 54.1976C44.449 49.0739 38.8985 43.9503 33.348 38.8266C44.4493 38.8266 55.5506 38.8266 66.6519 38.8266C61.1011 43.9503 55.5503 49.0739 49.9995 54.1976ZM43.457 49.955C39.7422 53.4114 36.0274 56.8677 32.3126 60.3241C32.3126 53.4386 32.3126 46.5532 32.3126 39.6677C36.0274 43.0968 39.7422 46.5259 43.457 49.955ZM44.4297 50.8531C46.2863 52.5669 48.1429 54.2806 49.9995 55.9944C51.8348 54.3002 53.6701 52.6061 55.5054 50.912C59.2197 54.3324 62.934 57.7528 66.6484 61.1732C55.545 61.1732 44.4417 61.1732 33.3384 61.1732C37.0355 57.7332 40.7326 54.2931 44.4297 50.8531ZM56.479 50.0134C60.2151 46.5648 63.9512 43.1162 67.6872 39.6677C67.6872 46.5567 67.6872 53.4457 67.6872 60.3347C63.9512 56.8943 60.2151 53.4538 56.479 50.0134Z" style=""></path></svg> 