<?xml version="1.0" encoding="UTF-8"?> <svg xmlns="http://www.w3.org/2000/svg" viewBox="0 0 100.00 100.00"><path color="rgb(51, 51, 51)" fill-rule="evenodd" fill="#b0c7dd" x="0" y="0" width="100" height="100" id="tSvgc093d0433d" title="Rectangle 7" fill-opacity="1" stroke="none" stroke-opacity="1" d="M0 0H100V100H0Z"></path><path fill="#fefefe" stroke="#fefefe" fill-opacity="1" stroke-width="0" stroke-opacity="1" color="rgb(51, 51, 51)" fill-rule="evenodd" id="tSvgadd88f373e" title="Path 16" d="M55.3948 49.9943C63.9993 49.9943 71.0002 42.818 71.0002 33.9971C71.0002 25.1762 63.9993 17.9999 55.3948 17.9999C46.9427 17.9999 38.4907 17.9999 30.0387 17.9999C29.2409 17.9999 28.7423 18.8851 29.1411 19.5934C29.3263 19.922 29.6684 20.1245 30.0387 20.1245C31.7332 20.1245 33.4278 20.1245 35.1223 20.1245C35.1062 29.3729 35.0901 38.6213 35.074 47.8697C33.401 47.8697 31.7281 47.8697 30.0552 47.8697C29.2574 47.8697 28.7588 48.755 29.1577 49.4632C29.3429 49.7919 29.685 49.9943 30.0552 49.9943C31.727 49.9943 33.3987 49.9943 35.0705 49.9943C35.0659 52.6034 35.0613 55.2125 35.0567 57.8216C33.3838 57.8216 31.7109 57.8216 30.038 57.8216C29.2402 57.8216 28.7416 58.7069 29.1405 59.4151C29.3256 59.7438 29.6677 59.9462 30.038 59.9462C31.7095 59.9462 33.381 59.9462 35.0525 59.9462C35.0433 65.276 35.0341 70.6059 35.0249 75.9357C35.0238 76.5227 35.4872 76.9994 36.0599 77.0001C36.0603 77.0001 36.0608 77.0001 36.0613 77.0001C36.6328 77.0002 37.0965 76.5258 37.0976 75.9399C37.1068 70.6087 37.116 65.2775 37.1252 59.9462C43.5624 59.9462 49.9995 59.9462 56.4367 59.9462C57.2344 59.9462 57.7331 59.061 57.3342 58.3527C57.149 58.0241 56.8069 57.8216 56.4367 57.8216C50.0011 57.8216 43.5656 57.8216 37.1301 57.8216C37.1347 55.2125 37.1393 52.6034 37.1439 49.9943C43.2275 49.9943 49.3112 49.9943 55.3948 49.9943ZM37.195 20.1245C43.2616 20.1245 49.3282 20.1245 55.3948 20.1245C62.8565 20.1245 68.9275 26.3483 68.9275 33.9978C68.9275 41.6466 62.8565 47.8697 55.3948 47.8697C49.3123 47.8697 43.2298 47.8697 37.1473 47.8697C37.1632 38.6213 37.1791 29.3729 37.195 20.1245Z" style=""></path></svg> 