<?xml version="1.0" encoding="UTF-8"?> <svg xmlns="http://www.w3.org/2000/svg" viewBox="0 0 100.00 100.00"><path color="rgb(51, 51, 51)" fill-rule="evenodd" fill="#b0c7dd" x="0" y="0" width="100" height="100" id="tSvg1807661ab5f" title="Rectangle 6" fill-opacity="1" stroke="none" stroke-opacity="1" d="M0 0H100V100H0Z"></path><path fill="#fefefe" stroke="#fefefe" fill-opacity="1" stroke-width="0" stroke-opacity="1" color="rgb(51, 51, 51)" fill-rule="evenodd" id="tSvg994d88a248" title="Path 14" d="M50 53.27C37.3178 53.27 27.0002 63.5327 27.0002 76.1472C27.0002 76.7617 27.5009 77.2598 28.1186 77.2598C42.7062 77.2598 57.2938 77.2598 71.8814 77.2598C72.4991 77.2598 72.9998 76.7617 72.9998 76.1472C72.9998 63.5327 62.6822 53.27 50 53.27ZM29.267 75.0347C29.8501 64.1623 38.927 55.495 50 55.495C61.073 55.495 70.1499 64.1623 70.733 75.0347C56.911 75.0347 43.089 75.0347 29.267 75.0347ZM49.6205 51.2355C56.9562 51.2355 62.9252 45.2968 62.9252 37.9964C62.9252 35.4176 62.1774 32.93 60.7703 30.7828C60.7703 25.3127 60.7703 19.8425 60.7703 14.3723C60.7703 13.7579 60.2695 13.2598 59.6518 13.2598C52.9647 13.2598 46.2777 13.2598 39.5906 13.2598C38.9729 13.2598 38.4721 13.7579 38.4721 14.3723C38.4721 19.84 38.4721 25.3077 38.4721 30.7754C37.0614 32.9222 36.3112 35.4318 36.3134 37.9964C36.3127 45.2968 42.2824 51.2355 49.6205 51.2355ZM40.7083 15.4856C46.6498 15.4856 52.5912 15.4856 58.5326 15.4856C58.5326 20.417 58.5326 25.3485 58.5326 30.28C52.5912 30.28 46.6498 30.28 40.7083 30.28C40.7083 25.3485 40.7083 20.417 40.7083 15.4856ZM40.0298 32.5043C46.4248 32.5043 52.8198 32.5043 59.2148 32.5043C60.1831 34.1742 60.6913 36.0687 60.6883 37.9964C60.6875 44.0701 55.7229 49.0105 49.6205 49.0105C43.5165 49.0105 38.5504 44.0694 38.5504 37.9964C38.5504 36.0555 39.0619 34.1716 40.0298 32.5043Z" style=""></path><path fill="#fefefe" stroke="#fefefe" fill-opacity="1" stroke-width="0" stroke-opacity="1" color="rgb(51, 51, 51)" fill-rule="evenodd" id="tSvg14e93900a4a" title="Path 15" d="M53.1071 20.9813C52.3687 20.9813 51.6303 20.9813 50.8919 20.9813C50.8919 20.3344 50.8919 19.6876 50.8919 19.0407C50.8919 18.4404 50.1489 18.0653 49.5545 18.3654C49.2787 18.5047 49.1087 18.7621 49.1087 19.0407C49.1087 19.6876 49.1087 20.3344 49.1087 20.9813C48.3701 20.9813 47.6315 20.9813 46.8929 20.9813C46.2066 20.9813 45.7776 21.6311 46.1208 22.151C46.2801 22.3923 46.5744 22.5409 46.8929 22.5409C47.6315 22.5409 48.3701 22.5409 49.1087 22.5409C49.1087 23.1869 49.1087 23.8329 49.1087 24.4789C49.1087 25.0792 49.8517 25.4543 50.4461 25.1542C50.7219 25.0149 50.8919 24.7575 50.8919 24.4789C50.8919 23.8329 50.8919 23.1869 50.8919 22.5409C51.6303 22.5409 52.3687 22.5409 53.1071 22.5409C53.7934 22.5409 54.2224 21.8911 53.8792 21.3712C53.72 21.1299 53.4256 20.9813 53.1071 20.9813Z" style=""></path></svg> 