<?xml version="1.0" encoding="UTF-8"?> <svg xmlns="http://www.w3.org/2000/svg" viewBox="0 0 100.00 100.00"><path color="rgb(51, 51, 51)" fill-rule="evenodd" fill="#b0c7dd" x="0" y="0" width="100" height="100" id="tSvge95b8a5286" title="Rectangle 5" fill-opacity="1" stroke="none" stroke-opacity="1" d="M0 0H100V100H0Z"></path><path fill="#fefefe" stroke="#fefefe" fill-opacity="1" stroke-width="0" stroke-opacity="1" color="rgb(51, 51, 51)" fill-rule="evenodd" id="tSvg778a101200" title="Path 13" d="M71.7725 29.3095C70.8689 29.3095 69.9654 29.3095 69.0619 29.3095C69.0619 27.4203 69.0619 25.5311 69.0619 23.6419C69.0619 23.0113 68.5123 22.5002 67.8343 22.5002C54.612 22.5002 41.3897 22.5002 28.1674 22.5002C27.4894 22.5002 26.9397 23.0113 26.9397 23.6419C26.9397 25.5311 26.9397 27.4203 26.9397 29.3095C26.0357 29.3095 25.1316 29.3095 24.2275 29.3095C23.5495 29.3095 22.9999 29.8206 22.9999 30.4512C22.9999 32.3708 22.9999 34.2905 22.9999 36.2101C22.9999 36.8407 23.5495 37.3518 24.2275 37.3518C25.1761 37.3518 26.1246 37.3518 27.0731 37.3518C28.7711 51.064 30.469 64.7762 32.167 78.4884C32.2381 79.0648 32.7626 79.4999 33.3864 79.5C43.1296 79.5 52.8728 79.5 62.6161 79.5C63.2398 79.4999 63.7644 79.0648 63.8355 78.4884C65.5332 64.7762 67.2308 51.064 68.9285 37.3518C69.8765 37.3518 70.8245 37.3518 71.7725 37.3518C72.4505 37.3518 73.0001 36.8407 73.0001 36.2101C73.0001 34.2905 73.0001 32.3708 73.0001 30.4512C73.0001 29.8206 72.4505 29.3095 71.7725 29.3095ZM29.395 24.7844C41.7989 24.7844 54.2028 24.7844 66.6066 24.7844C66.6066 26.293 66.6066 27.8016 66.6066 29.3102C54.2028 29.3102 41.7989 29.3102 29.395 29.3102C29.395 27.8016 29.395 26.293 29.395 24.7844ZM62.7789 67.0612C52.9268 67.0612 43.0748 67.0612 33.2227 67.0612C32.4539 60.853 31.6852 54.6447 30.9164 48.4365C42.3057 48.4365 53.6951 48.4365 65.0844 48.4365C64.3159 54.6447 63.5474 60.853 62.7789 67.0612ZM34.4806 77.2165C34.1557 74.5926 33.8308 71.9686 33.5059 69.3447C43.1692 69.3447 52.8325 69.3447 62.4957 69.3447C62.1708 71.9686 61.8459 74.5926 61.521 77.2165C52.5075 77.2165 43.4941 77.2165 34.4806 77.2165ZM65.3676 46.1531C53.7897 46.1531 42.2119 46.1531 30.6341 46.1531C30.2707 43.2196 29.9073 40.2861 29.5439 37.3526C41.8482 37.3526 54.1526 37.3526 66.4569 37.3526C66.0938 40.2861 65.7307 43.2196 65.3676 46.1531ZM70.5449 35.0684C55.5149 35.0684 40.485 35.0684 25.4551 35.0684C25.4551 33.9099 25.4551 32.7514 25.4551 31.5929C40.485 31.5929 55.5149 31.5929 70.5449 31.5929C70.5449 32.7514 70.5449 33.9099 70.5449 35.0684Z" style=""></path></svg> 